<?xml version="1.0" encoding="UTF-8" standalone="no"?>
<svg
   xmlns:dc="http://purl.org/dc/elements/1.1/"
   xmlns:cc="http://creativecommons.org/ns#"
   xmlns:rdf="http://www.w3.org/1999/02/22-rdf-syntax-ns#"
   xmlns:svg="http://www.w3.org/2000/svg"
   xmlns="http://www.w3.org/2000/svg"
   xmlns:sodipodi="http://sodipodi.sourceforge.net/DTD/sodipodi-0.dtd"
   xmlns:inkscape="http://www.inkscape.org/namespaces/inkscape"
   width="210mm"
   height="297mm"
   viewBox="0 0 210 297"
   version="1.1"
   id="svg8"
   inkscape:version="1.0.1 (3bc2e813f5, 2020-09-07)"
   sodipodi:docname="dokumentsymbolC.svg">
  <defs
     id="defs2">
    <inkscape:path-effect
       effect="powerclip"
       id="path-effect1646"
       is_visible="true"
       lpeversion="1"
       inverse="true"
       flatten="false"
       hide_clip="false"
       message="Füllregel Gerade-Ungerade im &lt;b&gt;Füllung und Kontur&lt;/b&gt;-Dialog verwenden, wenn das Anwenden des Ausschnitts mit nachfolgendem Umwandeln in Pfade kein Ergebnis bringt" />
    <clipPath
       clipPathUnits="userSpaceOnUse"
       id="clipPath933">
      <g
         inkscape:label="Clip"
         id="use935">
        <g
           id="g1739"
           clip-path="none"
           style="stroke-width:1;stroke-miterlimit:4;stroke-dasharray:none">
          <rect
             style="fill:#ffffff;fill-opacity:1;stroke:none;stroke-width:1;stroke-linecap:round;stroke-linejoin:round;stroke-miterlimit:4;stroke-dasharray:none"
             id="rect1725"
             width="33.02829"
             height="5.4797668"
             x="70.615723"
             y="47.906948"
             ry="1.7008914" />
          <rect
             style="fill:#ffffff;fill-opacity:1;stroke:none;stroke-width:1;stroke-linecap:round;stroke-linejoin:round;stroke-miterlimit:4;stroke-dasharray:none"
             id="rect1727"
             width="33.02829"
             height="5.4797668"
             x="70.615723"
             y="65.146576"
             ry="1.7008914" />
          <rect
             style="fill:#ffffff;fill-opacity:1;stroke:none;stroke-width:1.45222;stroke-linecap:round;stroke-linejoin:round;stroke-miterlimit:4;stroke-dasharray:none"
             id="rect1729"
             width="69.654793"
             height="5.4797668"
             x="70.749352"
             y="107.50954"
             ry="1.7008914" />
          <rect
             style="fill:#ffffff;fill-opacity:1;stroke:none;stroke-width:1.44944;stroke-linecap:round;stroke-linejoin:round;stroke-miterlimit:4;stroke-dasharray:none"
             id="rect1731"
             width="69.387527"
             height="5.4797668"
             x="71.016617"
             y="127.82202"
             ry="1.7008914" />
          <rect
             style="fill:#ffffff;fill-opacity:1;stroke:none;stroke-width:1;stroke-linecap:round;stroke-linejoin:round;stroke-miterlimit:4;stroke-dasharray:none"
             id="rect1733"
             width="33.02829"
             height="5.4797668"
             x="71.016617"
             y="146.13074"
             ry="1.7008914" />
          <rect
             style="fill:#ffffff;fill-opacity:1;stroke:none;stroke-width:1;stroke-linecap:round;stroke-linejoin:round;stroke-miterlimit:4;stroke-dasharray:none"
             id="rect1735"
             width="20.799652"
             height="27.440722"
             x="120.40827"
             y="47.751625"
             ry="1.7008924" />
          <rect
             style="fill:#ffffff;fill-opacity:1;stroke:none;stroke-width:1.45779;stroke-linecap:round;stroke-linejoin:round;stroke-miterlimit:4;stroke-dasharray:none"
             id="rect1737"
             width="70.189331"
             height="5.4797668"
             x="70.615723"
             y="86.929787"
             ry="1.7008914" />
        </g>
      </g>
    </clipPath>
    <clipPath
       clipPathUnits="userSpaceOnUse"
       id="clipPath1186">
      <g
         inkscape:label="Clip"
         id="use1188">
        <g
           id="g1721">
          <g
             id="g1719"
             clip-path="url(#clipPath933)">
            <g
               inkscape:label="Clip"
               id="g1717">
              <g
                 id="g1715"
                 clip-path="none"
                 style="stroke-width:1;stroke-miterlimit:4;stroke-dasharray:none">
                <rect
                   style="fill:#ffffff;fill-opacity:1;stroke:none;stroke-width:1;stroke-linecap:round;stroke-linejoin:round;stroke-miterlimit:4;stroke-dasharray:none"
                   id="rect1701"
                   width="33.02829"
                   height="5.4797668"
                   x="70.615723"
                   y="47.906948"
                   ry="1.7008914" />
                <rect
                   style="fill:#ffffff;fill-opacity:1;stroke:none;stroke-width:1;stroke-linecap:round;stroke-linejoin:round;stroke-miterlimit:4;stroke-dasharray:none"
                   id="rect1703"
                   width="33.02829"
                   height="5.4797668"
                   x="70.615723"
                   y="65.146576"
                   ry="1.7008914" />
                <rect
                   style="fill:#ffffff;fill-opacity:1;stroke:none;stroke-width:1.45222;stroke-linecap:round;stroke-linejoin:round;stroke-miterlimit:4;stroke-dasharray:none"
                   id="rect1705"
                   width="69.654793"
                   height="5.4797668"
                   x="70.749352"
                   y="107.50954"
                   ry="1.7008914" />
                <rect
                   style="fill:#ffffff;fill-opacity:1;stroke:none;stroke-width:1.44944;stroke-linecap:round;stroke-linejoin:round;stroke-miterlimit:4;stroke-dasharray:none"
                   id="rect1707"
                   width="69.387527"
                   height="5.4797668"
                   x="71.016617"
                   y="127.82202"
                   ry="1.7008914" />
                <rect
                   style="fill:#ffffff;fill-opacity:1;stroke:none;stroke-width:1;stroke-linecap:round;stroke-linejoin:round;stroke-miterlimit:4;stroke-dasharray:none"
                   id="rect1709"
                   width="33.02829"
                   height="5.4797668"
                   x="71.016617"
                   y="146.13074"
                   ry="1.7008914" />
                <rect
                   style="fill:#ffffff;fill-opacity:1;stroke:none;stroke-width:1;stroke-linecap:round;stroke-linejoin:round;stroke-miterlimit:4;stroke-dasharray:none"
                   id="rect1711"
                   width="20.799652"
                   height="27.440722"
                   x="120.40827"
                   y="47.751625"
                   ry="1.7008924" />
                <rect
                   style="fill:#ffffff;fill-opacity:1;stroke:none;stroke-width:1.45779;stroke-linecap:round;stroke-linejoin:round;stroke-miterlimit:4;stroke-dasharray:none"
                   id="rect1713"
                   width="70.189331"
                   height="5.4797668"
                   x="70.615723"
                   y="86.929787"
                   ry="1.7008914" />
              </g>
            </g>
          </g>
        </g>
      </g>
    </clipPath>
    <clipPath
       clipPathUnits="userSpaceOnUse"
       id="clipPath1648">
      <g
         inkscape:label="Clip"
         id="use1650">
        <rect
           style="fill:#ffffff;fill-opacity:1;stroke:none;stroke-width:0.772843;stroke-linecap:round;stroke-linejoin:round;stroke-miterlimit:4;stroke-dasharray:none;stroke-opacity:1"
           id="rect1602"
           width="31.74268"
           height="38.121872"
           x="120.60458"
           y="45.332222"
           ry="3.7187352" />
        <rect
           style="fill:#ffffff;fill-opacity:1;stroke:none;stroke-width:0.468719;stroke-linecap:round;stroke-linejoin:round;stroke-miterlimit:4;stroke-dasharray:none;stroke-opacity:1"
           id="rect1604"
           width="36.579845"
           height="12.167955"
           x="76.563034"
           y="45.332222"
           ry="4.6257372" />
        <rect
           style="fill:#ffffff;fill-opacity:1;stroke:none;stroke-width:0.46872;stroke-linecap:round;stroke-linejoin:round;stroke-miterlimit:4;stroke-dasharray:none;stroke-opacity:1"
           id="rect1606"
           width="36.579845"
           height="12.167955"
           x="76.563026"
           y="69.668129"
           ry="4.6257372" />
        <rect
           style="fill:#ffffff;fill-opacity:1;stroke:none;stroke-width:0.673841;stroke-linecap:round;stroke-linejoin:round;stroke-miterlimit:4;stroke-dasharray:none;stroke-opacity:1"
           id="rect1608"
           width="75.601196"
           height="12.167955"
           x="76.563026"
           y="98.28035"
           ry="4.6257372" />
        <rect
           style="fill:#ffffff;fill-opacity:1;stroke:none;stroke-width:0.673841;stroke-linecap:round;stroke-linejoin:round;stroke-miterlimit:4;stroke-dasharray:none;stroke-opacity:1"
           id="rect1610"
           width="75.601196"
           height="12.167955"
           x="76.563011"
           y="122.61626"
           ry="4.6257372" />
        <rect
           style="fill:#ffffff;fill-opacity:1;stroke:none;stroke-width:0.44949;stroke-linecap:round;stroke-linejoin:round;stroke-miterlimit:4;stroke-dasharray:none;stroke-opacity:1"
           id="rect1612"
           width="33.639881"
           height="12.167955"
           x="76.563026"
           y="144.23633"
           ry="4.6257372" />
      </g>
    </clipPath>
    <clipPath
       clipPathUnits="userSpaceOnUse"
       id="clipPath1630">
      <g
         id="g1644"
         style="display:none">
        <rect
           style="fill:#ffffff;fill-opacity:1;stroke:none;stroke-width:0.772843;stroke-linecap:round;stroke-linejoin:round;stroke-miterlimit:4;stroke-dasharray:none;stroke-opacity:1"
           id="rect1632"
           width="31.74268"
           height="38.121872"
           x="99.721252"
           y="94.13961"
           ry="3.7187352"
           d="m 103.43999,94.13961 h 24.30521 c 2.06018,0 3.71873,1.658556 3.71873,3.718736 v 30.684404 c 0,2.06018 -1.65855,3.71873 -3.71873,3.71873 h -24.30521 c -2.06018,0 -3.718738,-1.65855 -3.718738,-3.71873 V 97.858346 c 0,-2.06018 1.658558,-3.718736 3.718738,-3.718736 z" />
        <rect
           style="fill:#ffffff;fill-opacity:1;stroke:none;stroke-width:0.468719;stroke-linecap:round;stroke-linejoin:round;stroke-miterlimit:4;stroke-dasharray:none;stroke-opacity:1"
           id="rect1634"
           width="36.579845"
           height="12.167955"
           x="55.679703"
           y="94.13961"
           ry="4.6257372"
           d="m 60.30544,94.13961 h 27.328371 c 2.562658,0 4.625737,2.063079 4.625737,4.625737 v 2.916483 c 0,2.56266 -2.063079,4.62574 -4.625737,4.62574 H 60.30544 c -2.562658,0 -4.625737,-2.06308 -4.625737,-4.62574 v -2.916483 c 0,-2.562658 2.063079,-4.625737 4.625737,-4.625737 z" />
        <rect
           style="fill:#ffffff;fill-opacity:1;stroke:none;stroke-width:0.46872;stroke-linecap:round;stroke-linejoin:round;stroke-miterlimit:4;stroke-dasharray:none;stroke-opacity:1"
           id="rect1636"
           width="36.579845"
           height="12.167955"
           x="55.679695"
           y="118.47552"
           ry="4.6257372"
           d="m 60.305432,118.47552 h 27.328371 c 2.562659,0 4.625738,2.06308 4.625738,4.62573 v 2.91649 c 0,2.56265 -2.063079,4.62573 -4.625738,4.62573 H 60.305432 c -2.562658,0 -4.625737,-2.06308 -4.625737,-4.62573 v -2.91649 c 0,-2.56265 2.063079,-4.62573 4.625737,-4.62573 z" />
        <rect
           style="fill:#ffffff;fill-opacity:1;stroke:none;stroke-width:0.673841;stroke-linecap:round;stroke-linejoin:round;stroke-miterlimit:4;stroke-dasharray:none;stroke-opacity:1"
           id="rect1638"
           width="75.601196"
           height="12.167955"
           x="55.679695"
           y="147.08774"
           ry="4.6257372"
           d="m 60.305432,147.08774 h 66.349718 c 2.56266,0 4.62574,2.06308 4.62574,4.62574 v 2.91648 c 0,2.56265 -2.06308,4.62573 -4.62574,4.62573 H 60.305432 c -2.562658,0 -4.625737,-2.06308 -4.625737,-4.62573 v -2.91648 c 0,-2.56266 2.063079,-4.62574 4.625737,-4.62574 z" />
        <rect
           style="fill:#ffffff;fill-opacity:1;stroke:none;stroke-width:0.673841;stroke-linecap:round;stroke-linejoin:round;stroke-miterlimit:4;stroke-dasharray:none;stroke-opacity:1"
           id="rect1640"
           width="75.601196"
           height="12.167955"
           x="55.67968"
           y="171.42365"
           ry="4.6257372"
           d="m 60.305417,171.42365 h 66.349723 c 2.56266,0 4.62574,2.06307 4.62574,4.62573 v 2.91648 c 0,2.56266 -2.06308,4.62574 -4.62574,4.62574 H 60.305417 c -2.562658,0 -4.625737,-2.06308 -4.625737,-4.62574 v -2.91648 c 0,-2.56266 2.063079,-4.62573 4.625737,-4.62573 z" />
        <rect
           style="fill:#ffffff;fill-opacity:1;stroke:none;stroke-width:0.44949;stroke-linecap:round;stroke-linejoin:round;stroke-miterlimit:4;stroke-dasharray:none;stroke-opacity:1"
           id="rect1642"
           width="33.639881"
           height="12.167955"
           x="55.679695"
           y="193.04372"
           ry="4.6257372"
           d="m 60.305432,193.04372 h 24.388407 c 2.562658,0 4.625737,2.06308 4.625737,4.62573 v 2.91648 c 0,2.56266 -2.063079,4.62574 -4.625737,4.62574 H 60.305432 c -2.562658,0 -4.625737,-2.06308 -4.625737,-4.62574 v -2.91648 c 0,-2.56265 2.063079,-4.62573 4.625737,-4.62573 z" />
      </g>
      <path
         id="lpe_path-effect1646"
         class="powerclip"
         d="M 36.704151,75.414253 H 149.70266 V 223.56455 H 36.704151 Z M 103.43999,94.13961 c -2.06018,0 -3.718738,1.658556 -3.718738,3.718736 v 30.684404 c 0,2.06018 1.658558,3.71873 3.718738,3.71873 h 24.30521 c 2.06018,0 3.71873,-1.65855 3.71873,-3.71873 V 97.858346 c 0,-2.06018 -1.65855,-3.718736 -3.71873,-3.718736 z m -43.13455,0 c -2.562658,0 -4.625737,2.063079 -4.625737,4.625737 v 2.916483 c 0,2.56266 2.063079,4.62574 4.625737,4.62574 h 27.328371 c 2.562658,0 4.625737,-2.06308 4.625737,-4.62574 v -2.916483 c 0,-2.562658 -2.063079,-4.625737 -4.625737,-4.625737 z m -8e-6,24.33591 c -2.562658,0 -4.625737,2.06308 -4.625737,4.62573 v 2.91649 c 0,2.56265 2.063079,4.62573 4.625737,4.62573 h 27.328371 c 2.562659,0 4.625738,-2.06308 4.625738,-4.62573 v -2.91649 c 0,-2.56265 -2.063079,-4.62573 -4.625738,-4.62573 z m 0,28.61222 c -2.562658,0 -4.625737,2.06308 -4.625737,4.62574 v 2.91648 c 0,2.56265 2.063079,4.62573 4.625737,4.62573 h 66.349718 c 2.56266,0 4.62574,-2.06308 4.62574,-4.62573 v -2.91648 c 0,-2.56266 -2.06308,-4.62574 -4.62574,-4.62574 z m -1.5e-5,24.33591 c -2.562658,0 -4.625737,2.06307 -4.625737,4.62573 v 2.91648 c 0,2.56266 2.063079,4.62574 4.625737,4.62574 h 66.349723 c 2.56266,0 4.62574,-2.06308 4.62574,-4.62574 v -2.91648 c 0,-2.56266 -2.06308,-4.62573 -4.62574,-4.62573 z m 1.5e-5,21.62007 c -2.562658,0 -4.625737,2.06308 -4.625737,4.62573 v 2.91648 c 0,2.56266 2.063079,4.62574 4.625737,4.62574 h 24.388407 c 2.562658,0 4.625737,-2.06308 4.625737,-4.62574 v -2.91648 c 0,-2.56265 -2.063079,-4.62573 -4.625737,-4.62573 z" />
    </clipPath>
  </defs>
  <sodipodi:namedview
     id="base"
     pagecolor="#ffffff"
     bordercolor="#666666"
     borderopacity="1.0"
     inkscape:pageopacity="0.0"
     inkscape:pageshadow="2"
     inkscape:zoom="0.35"
     inkscape:cx="-41.879603"
     inkscape:cy="802.57329"
     inkscape:document-units="mm"
     inkscape:current-layer="g1684"
     inkscape:document-rotation="0"
     showgrid="false"
     inkscape:window-width="1920"
     inkscape:window-height="1017"
     inkscape:window-x="-8"
     inkscape:window-y="-8"
     inkscape:window-maximized="1" />
  <metadata
     id="metadata5">
    <rdf:RDF>
      <cc:Work
         rdf:about="">
        <dc:format>image/svg+xml</dc:format>
        <dc:type
           rdf:resource="http://purl.org/dc/dcmitype/StillImage" />
        <dc:title></dc:title>
      </cc:Work>
    </rdf:RDF>
  </metadata>
  <g
     inkscape:label="Ebene 1"
     inkscape:groupmode="layer"
     id="layer1">
    <g
       id="g1684">
      <path
         style="fill:#500808;fill-opacity:1;fill-rule:evenodd;stroke:none;stroke-width:1.07339;stroke-linecap:round;stroke-linejoin:round;stroke-miterlimit:4;stroke-dasharray:none;stroke-opacity:1"
         id="rect1281"
         width="102.99851"
         height="138.1503"
         x="41.704151"
         y="80.414253"
         ry="11.11267"
         sodipodi:type="rect"
         mask="none"
         d="m 52.816821,80.414253 h 80.773169 c 6.15642,0 11.11267,4.956251 11.11267,11.11267 V 207.45188 c 0,6.15642 -4.95625,11.11267 -11.11267,11.11267 H 52.816821 c -6.156419,0 -11.11267,-4.95625 -11.11267,-11.11267 V 91.526923 c 0,-6.156419 4.956251,-11.11267 11.11267,-11.11267 z"
         clip-path="url(#clipPath1630)"
         inkscape:path-effect="#path-effect1646"
         transform="matrix(1.8073394,0,0,1.8073394,-63.486928,-113.26891)" />
    </g>
  </g>
</svg>
